<?xml version="1.0" standalone="no"?>
<!DOCTYPE svg PUBLIC "-//W3C//DTD SVG 20010904//EN"
 "http://www.w3.org/TR/2001/REC-SVG-20010904/DTD/svg10.dtd">
<svg version="1.0" xmlns="http://www.w3.org/2000/svg"
 width="320.000000pt" height="320.000000pt" viewBox="0 0 320.000000 320.000000"
 preserveAspectRatio="xMidYMid meet">
<metadata>
Created by potrace 1.15, written by Peter Selinger 2001-2017
</metadata>
<g transform="translate(0.000000,320.000000) scale(0.100000,-0.100000)"
fill="#000000" stroke="none">
<path d="M1356 3174 c-649 -101 -1175 -593 -1317 -1233 -44 -202 -46 -472 -4
-676 97 -469 421 -888 850 -1100 142 -70 240 -105 385 -138 133 -30 519 -32
650 -3 781 171 1310 848 1277 1636 -7 165 -26 277 -73 423 -121 377 -389 706
-739 906 -163 94 -386 167 -575 191 -115 14 -346 11 -454 -6z m546 -114 c287
-61 548 -202 757 -410 216 -216 361 -493 419 -805 23 -126 22 -388 -2 -515
-116 -607 -562 -1066 -1167 -1202 -90 -20 -131 -23 -309 -23 -223 0 -291 10
-464 66 -236 77 -497 246 -640 413 l-46 54 93 60 c138 89 172 104 236 104 94
-1 209 -29 306 -76 80 -40 291 -182 337 -228 18 -18 88 -26 88 -10 1 4 10 18
21 31 l20 24 48 -51 c39 -43 53 -52 81 -52 18 0 42 7 52 17 22 20 24 70 3 93
-13 14 -14 26 -6 61 21 91 5 169 -41 198 -25 16 -43 2 -58 -45 -6 -19 -15 -34
-20 -34 -4 0 -24 20 -44 45 -55 66 -142 146 -237 218 -46 35 -90 71 -98 80 -7
10 -22 17 -33 17 -11 0 -18 4 -16 8 5 13 164 162 173 162 4 0 19 -9 35 -20 57
-40 230 -68 230 -36 0 7 24 25 53 40 47 23 57 24 85 14 24 -10 39 -9 65 0 18
7 41 12 50 12 10 0 26 18 39 46 18 39 19 50 9 66 -8 13 -10 34 -6 58 8 48 -5
73 -45 90 -65 27 -138 -19 -146 -93 -5 -35 -30 -68 -42 -52 -4 6 -47 18 -95
28 -49 10 -106 25 -128 34 -38 15 -39 16 -39 67 0 42 -6 60 -30 93 -28 38 -98
83 -128 83 -7 0 -12 11 -12 24 0 33 47 70 105 85 62 16 105 58 105 103 0 18
-4 28 -8 22 -13 -20 -50 -34 -91 -34 -50 0 -54 15 -6 24 54 10 43 37 -15 38
-17 1 -30 6 -30 11 0 13 128 1 145 -13 9 -8 14 -6 19 6 12 32 5 52 -29 78 -29
22 -33 31 -29 55 5 24 1 30 -29 44 -19 10 -40 17 -46 17 -6 0 -11 9 -11 20 0
14 5 18 18 13 12 -4 11 -1 -4 10 -12 9 -37 19 -55 22 -72 12 -90 30 -107 112
-7 34 -11 38 -38 35 -58 -5 -64 -6 -64 -17 0 -18 59 -105 70 -105 6 0 9 -3 7
-7 -3 -5 10 -9 27 -10 65 -3 116 -22 116 -43 0 -15 -7 -20 -25 -20 -14 0 -25
4 -25 8 0 4 -33 4 -72 -1 -106 -13 -130 -12 -139 6 -5 8 -23 18 -39 22 -16 4
-32 10 -35 15 -6 11 5 41 14 36 3 -2 6 8 6 22 0 15 4 40 8 56 7 26 6 28 -7 17
-9 -7 -18 -28 -22 -47 -3 -18 -23 -59 -44 -91 -62 -96 -75 -209 -40 -342 34
-126 34 -125 -62 -146 -116 -25 -272 -77 -354 -118 -94 -48 -254 -152 -271
-177 -14 -20 -14 -20 -47 6 -31 25 -34 33 -39 99 -8 84 7 265 29 374 57 282
195 533 408 747 249 249 544 393 896 438 86 11 367 -4 462 -24z m-906 -943 c3
-2 -7 -7 -21 -11 -16 -4 -25 -13 -25 -26 0 -19 1 -19 48 2 51 22 139 31 160
15 6 -5 12 -24 12 -42 0 -41 19 -57 84 -72 l51 -12 -50 1 c-27 0 -63 -1 -80
-2 l-30 -2 30 -7 c27 -6 25 -8 -22 -14 -40 -6 -51 -11 -47 -22 5 -11 24 -15
68 -16 33 -1 52 -3 41 -6 -11 -3 -24 -9 -29 -14 -13 -12 20 -12 63 1 26 7 39
6 55 -5 24 -17 89 -20 117 -5 15 8 19 7 19 -4 0 -21 -37 -44 -100 -63 -56 -16
-116 -66 -104 -85 4 -6 1 -9 -7 -6 -8 3 -26 1 -41 -3 -18 -5 -57 -1 -110 12
-46 11 -101 19 -123 17 l-40 -3 -3 50 c-2 49 -2 50 36 68 21 9 47 17 57 17 10
0 33 10 52 21 25 16 31 24 22 30 -8 4 -19 3 -27 -4 -14 -11 -159 -13 -171 -2
-10 10 -4 149 7 176 10 24 15 27 57 24 25 -2 48 -5 51 -8z m328 -507 c20 -23
41 -52 46 -66 17 -44 12 -144 -10 -188 -22 -47 -240 -267 -246 -250 -3 6 -11
20 -19 30 -12 17 -17 18 -47 5 -68 -27 -73 -26 -102 22 -14 25 -26 50 -26 55
0 5 17 21 38 35 72 47 137 110 160 153 12 24 26 44 31 44 5 0 21 -14 35 -32
14 -18 27 -30 29 -28 3 3 17 32 32 64 22 49 26 71 23 120 -2 34 -8 69 -13 80
-7 16 -5 17 12 8 11 -6 36 -29 57 -52z m-580 -190 c20 -22 36 -44 36 -49 0 -6
-31 -20 -69 -32 l-69 -22 -25 -61 c-22 -54 -23 -63 -11 -77 13 -15 11 -20 -23
-46 -63 -49 -61 -50 -119 8 -42 41 -52 58 -48 75 4 15 -3 36 -20 61 l-27 38
108 53 c111 53 199 91 219 91 7 1 28 -17 48 -39z m-551 -161 c12 -15 30 -40
40 -54 16 -22 24 -25 48 -20 24 5 28 4 23 -9 -3 -9 -1 -16 5 -16 7 0 14 7 16
15 16 49 16 50 24 37 4 -8 6 -25 4 -40 -4 -24 -3 -25 9 -11 15 18 18 16 116
-73 45 -41 45 -52 1 -63 -22 -5 -39 4 -109 64 -46 39 -88 67 -93 64 -10 -6 18
-35 122 -125 l54 -46 -58 -86 c-32 -47 -62 -86 -65 -86 -16 0 -114 208 -149
317 -22 65 -37 120 -35 122 2 2 13 -4 24 -14 38 -34 34 -5 -5 35 -38 39 -38
40 -19 54 17 13 19 13 22 -12 2 -14 13 -38 25 -53z m623 -89 c3 0 19 7 35 16
17 8 32 14 33 12 2 -2 17 -24 34 -49 48 -71 54 -74 103 -49 l42 22 21 -27 c17
-21 28 -26 43 -21 12 4 24 2 28 -4 3 -5 17 -10 29 -10 13 0 30 -7 37 -16 8 -9
66 -58 129 -109 124 -99 200 -170 200 -185 0 -5 -11 -17 -24 -25 -14 -9 -43
-45 -67 -81 l-42 -65 -71 69 c-39 38 -91 80 -116 95 -108 62 -253 99 -378 96
-64 -2 -94 4 -81 14 23 19 238 110 269 114 22 3 40 10 40 16 0 23 -190 -32
-300 -88 -65 -33 -260 -156 -311 -196 -20 -16 -39 -29 -42 -29 -4 0 -20 20
-37 45 l-31 46 38 52 c21 28 66 90 100 136 35 46 63 91 63 100 1 16 87 81 108
81 6 0 40 16 74 35 49 27 64 31 66 20 2 -8 6 -15 8 -15z"/>
<path d="M1545 2995 c-51 -50 -20 -129 50 -129 71 0 104 90 49 133 -35 28 -69
26 -99 -4z"/>
<path d="M1587 2733 c-37 -165 -42 -221 -42 -438 1 -216 6 -267 47 -459 13
-61 20 -50 42 64 38 197 45 386 22 590 -13 115 -44 301 -51 308 -2 2 -10 -27
-18 -65z"/>
<path d="M1786 2484 c-9 -8 -16 -24 -16 -34 0 -28 -11 -50 -25 -50 -7 0 -16
-7 -19 -16 -9 -23 -8 -24 12 -24 17 0 18 -5 4 -113 -17 -130 -13 -159 24 -176
22 -10 32 -9 63 6 20 10 41 29 48 43 17 34 0 49 -27 25 -38 -35 -45 -8 -29
112 13 101 15 108 39 113 35 8 40 40 6 40 -25 0 -25 2 -19 45 5 43 5 45 -20
45 -14 0 -33 -7 -41 -16z"/>
<path d="M2064 2290 c-33 -13 -64 -59 -64 -95 0 -19 12 -50 30 -76 35 -52 36
-60 10 -84 -13 -12 -27 -15 -45 -11 -34 9 -42 33 -22 68 15 26 15 28 -4 39
-26 14 -66 -11 -75 -47 -14 -55 45 -104 126 -104 52 0 76 13 95 50 21 42 19
54 -20 111 -19 28 -35 55 -35 59 0 11 40 60 50 60 5 0 16 -7 25 -16 15 -15 15
-18 -1 -41 -19 -30 -7 -48 29 -40 32 9 50 49 35 81 -16 36 -94 63 -134 46z"/>
<path d="M2376 2019 c-27 -21 -34 -57 -15 -76 9 -9 18 -7 38 7 45 32 92 30
128 -6 21 -21 23 -28 12 -34 -8 -4 -110 -34 -228 -66 -124 -34 -215 -63 -218
-71 -8 -19 26 -53 52 -53 13 0 63 12 111 26 259 75 296 85 298 82 1 -2 7 -21
12 -42 5 -23 20 -47 36 -59 23 -18 30 -18 57 -7 37 15 38 17 7 49 -14 15 -34
51 -46 81 -33 85 -67 137 -108 165 -46 31 -99 33 -136 4z"/>
<path d="M1562 1663 c-21 -8 -43 -61 -36 -88 14 -57 97 -75 133 -29 28 35 26
69 -4 99 -23 24 -61 31 -93 18z"/>
<path d="M2931 1660 c-35 -8 -65 -52 -57 -84 16 -65 86 -87 131 -41 30 29 32
64 5 97 -22 29 -45 37 -79 28z"/>
<path d="M2085 1653 c-74 -7 -290 -45 -298 -52 -22 -22 317 -71 488 -71 164 0
505 41 505 60 0 9 -187 45 -310 60 -79 9 -295 11 -385 3z"/>
<path d="M2157 1473 c-11 -10 -8 -38 6 -56 6 -9 55 -28 107 -43 57 -15 102
-34 113 -46 18 -22 23 -53 8 -62 -4 -3 -62 10 -127 28 -121 35 -133 34 -134
-5 0 -28 33 -47 130 -73 94 -25 120 -43 120 -77 0 -30 -16 -31 -107 -4 -105
30 -125 31 -148 5 -17 -19 -18 -63 -1 -101 6 -14 0 -16 -41 -12 -39 4 -53 1
-77 -18 -55 -43 -72 -138 -40 -219 16 -40 44 -51 34 -14 -3 10 -5 44 -5 75 0
63 22 99 60 99 19 0 23 -8 33 -72 6 -39 19 -83 30 -97 24 -33 67 -54 93 -46
26 9 59 62 59 98 0 32 -30 97 -55 117 -32 26 -57 112 -36 124 5 3 46 -5 92
-19 107 -31 143 -32 163 -3 23 32 20 62 -10 97 l-26 31 31 11 c49 17 52 68 7
117 -20 23 -21 24 -1 22 39 -4 45 0 45 33 0 33 -23 77 -41 77 -5 0 -9 -7 -9
-15 0 -19 8 -21 -133 20 -133 38 -131 38 -140 28z"/>
</g>
</svg>
